<?xml version="1.0" encoding="utf-8"?>
<!-- Generator: Adobe Illustrator 17.0.0, SVG Export Plug-In . SVG Version: 6.00 Build 0)  -->
<!DOCTYPE svg PUBLIC "-//W3C//DTD SVG 1.1//EN" "http://www.w3.org/Graphics/SVG/1.1/DTD/svg11.dtd">
<svg version="1.1"   xmlns="http://www.w3.org/2000/svg" xmlns:xlink="http://www.w3.org/1999/xlink"  >

	<symbol id="icon-assinatura" viewBox="0 0 39.63 39.968">
  <defs>
    <style>
      .cls-1 {
        fill: #8ae647;
        fill-rule: evenodd;
      }
    </style>
  </defs>
  <path d="M38.593,6.125 L33.536,1.026 C32.874,0.357 31.993,-0.011 31.056,-0.011 C31.056,-0.011 31.056,-0.011 31.055,-0.011 C30.117,-0.011 29.236,0.356 28.574,1.024 C28.573,1.025 28.573,1.025 28.572,1.026 L24.535,5.100 C24.535,5.101 24.534,5.101 24.534,5.101 L22.119,7.537 C22.117,7.538 22.117,7.541 22.114,7.542 L3.753,26.069 C3.695,26.119 3.631,26.159 3.576,26.215 C3.562,26.230 3.556,26.250 3.542,26.266 C3.463,26.346 3.395,26.439 3.363,26.555 L1.612,33.154 C1.612,33.155 1.610,33.156 1.610,33.158 C1.610,33.159 1.610,33.161 1.610,33.162 L0.023,39.141 C-0.037,39.367 0.026,39.609 0.192,39.775 C0.315,39.900 0.482,39.967 0.651,39.967 C0.708,39.967 0.764,39.960 0.820,39.945 L6.731,38.346 C6.736,38.345 6.742,38.345 6.747,38.344 C6.749,38.343 6.752,38.340 6.755,38.339 L13.291,36.571 C13.406,36.540 13.499,36.471 13.578,36.391 C13.593,36.378 13.612,36.372 13.626,36.357 C13.686,36.299 13.729,36.230 13.782,36.167 L32.135,17.648 C32.136,17.647 32.138,17.647 32.140,17.645 L34.552,15.209 L38.590,11.135 C38.592,11.135 38.593,11.135 38.594,11.134 C39.960,9.752 39.960,7.506 38.593,6.125 ZM31.056,1.303 C31.645,1.303 32.199,1.534 32.615,1.955 L37.672,7.055 C38.532,7.922 38.532,9.336 37.674,10.204 C37.672,10.205 37.671,10.205 37.670,10.206 L34.091,13.816 L25.914,5.566 L29.494,1.954 C29.494,1.954 29.494,1.954 29.495,1.954 C29.911,1.534 30.465,1.303 31.055,1.303 C31.056,1.303 31.056,1.303 31.056,1.303 ZM12.741,35.360 L6.998,36.913 C6.660,36.000 6.139,35.162 5.450,34.468 C4.764,33.775 3.934,33.250 3.025,32.907 L4.565,27.109 L4.595,27.078 C5.175,26.585 6.033,26.593 6.576,27.143 C6.854,27.422 7.006,27.795 7.006,28.191 C7.006,28.501 6.911,28.795 6.736,29.044 L6.535,29.247 C6.280,29.503 6.280,29.919 6.535,30.176 C6.604,30.245 6.685,30.293 6.772,30.324 C7.023,30.477 7.348,30.456 7.563,30.238 C7.842,29.958 8.210,29.803 8.604,29.803 L8.605,29.803 C8.997,29.803 9.365,29.956 9.642,30.236 C9.920,30.516 10.072,30.888 10.072,31.284 C10.073,31.681 9.920,32.054 9.641,32.335 C9.425,32.552 9.405,32.880 9.554,33.132 C9.587,33.219 9.633,33.302 9.703,33.371 C9.829,33.500 9.996,33.564 10.163,33.564 C10.329,33.564 10.496,33.500 10.622,33.371 L10.817,33.176 C11.064,32.997 11.358,32.897 11.669,32.896 C11.670,32.896 11.671,32.896 11.671,32.896 C12.063,32.896 12.432,33.050 12.708,33.329 C12.987,33.609 13.139,33.982 13.138,34.379 C13.138,34.690 13.041,34.985 12.866,35.233 L12.741,35.360 ZM22.581,8.931 L24.626,10.994 L8.226,27.541 C8.108,27.043 7.866,26.584 7.497,26.214 C7.121,25.835 6.661,25.596 6.179,25.480 L22.581,8.931 ZM27.792,14.190 L11.329,30.802 C11.231,30.238 10.972,29.719 10.563,29.307 C10.153,28.895 9.639,28.633 9.082,28.536 L25.546,11.924 L27.792,14.190 ZM13.630,32.400 C13.262,32.030 12.807,31.784 12.314,31.666 L28.713,15.119 L30.757,17.181 L14.358,33.729 C14.240,33.231 13.997,32.771 13.630,32.400 ZM26.007,10.530 L26.007,10.530 C26.007,10.530 26.007,10.530 26.006,10.529 L23.501,8.002 L24.995,6.495 L25.683,7.190 L33.171,14.745 L31.677,16.251 L26.007,10.530 ZM2.689,34.175 C3.377,34.454 4.004,34.867 4.529,35.396 C5.056,35.928 5.466,36.562 5.741,37.254 L1.572,38.381 L2.689,34.175 Z" class="cls-1"/>
</symbol>

	<symbol id="icon-audiencia" viewBox="0 0 37 43">
  <defs>
    <style>
      .cls-1 {
        fill: #8e7cd9;
        fill-rule: evenodd;
      }
    </style>
  </defs>
  <path d="M36.978,42.155 L36.231,39.782 C34.919,35.339 28.732,32.283 27.089,31.540 L27.089,31.432 C27.089,31.206 26.971,30.996 26.778,30.878 L24.886,29.719 C24.895,29.513 24.816,29.306 24.638,29.174 L23.284,28.163 L23.284,25.976 C24.308,25.004 26.015,23.202 26.681,21.427 C27.164,21.155 28.026,20.446 28.444,18.735 C28.720,17.610 28.915,16.101 28.286,15.294 C28.271,15.275 28.253,15.261 28.237,15.243 C28.818,14.236 29.806,12.008 29.806,8.478 C29.806,4.186 26.898,3.142 25.805,2.901 C24.661,0.513 20.410,-0.006 16.946,-0.006 C14.262,-0.006 9.950,1.362 8.836,3.929 C7.992,5.877 8.142,8.625 8.224,10.101 C8.241,10.392 8.253,10.626 8.253,10.782 C8.253,11.559 8.718,13.972 8.937,15.072 C8.856,15.136 8.780,15.209 8.714,15.295 C8.083,16.102 8.279,17.611 8.554,18.735 C8.973,20.446 9.835,21.155 10.318,21.427 C10.988,23.209 12.704,25.017 13.717,25.978 L13.717,28.163 L12.360,29.174 C12.185,29.304 12.095,29.513 12.104,29.724 L10.220,30.878 C10.027,30.996 9.910,31.206 9.910,31.432 L9.910,31.540 C8.266,32.283 2.079,35.337 0.773,39.771 L0.023,42.155 C-0.040,42.352 -0.004,42.567 0.117,42.734 C0.239,42.900 0.433,42.999 0.639,42.999 L13.488,42.999 L16.876,42.999 L20.126,42.999 L23.512,42.999 L36.362,42.999 C36.567,42.999 36.760,42.900 36.882,42.734 C37.003,42.567 37.039,42.352 36.978,42.155 ZM20.909,37.865 L20.273,35.789 C20.787,35.401 21.080,34.901 21.181,34.561 C21.245,34.350 21.195,34.120 21.052,33.953 L18.990,31.541 C18.985,31.536 18.978,31.534 18.973,31.528 L22.605,29.273 L23.495,29.937 L20.909,37.865 ZM19.657,41.702 L17.343,41.702 L16.788,40.001 L17.917,36.307 C18.100,36.339 18.293,36.358 18.500,36.358 C18.708,36.358 18.900,36.339 19.082,36.307 L20.212,40.001 L20.201,40.031 L19.657,41.702 ZM15.010,27.070 C15.657,27.510 16.882,28.163 18.500,28.163 C20.128,28.163 21.356,27.503 21.992,27.070 L21.992,28.128 L18.500,30.297 L15.010,28.128 L15.010,27.070 ZM18.500,32.959 L19.793,34.471 C19.608,34.729 19.229,35.061 18.500,35.061 C17.769,35.061 17.389,34.727 17.205,34.471 L18.500,32.959 ZM28.513,8.478 C28.513,10.494 28.161,12.041 27.778,13.126 C27.572,11.874 27.152,10.416 26.292,9.542 C25.998,9.242 25.666,9.031 25.308,8.894 C25.745,7.905 26.368,6.128 26.182,4.353 C27.135,4.736 28.513,5.756 28.513,8.478 ZM10.018,4.447 C10.803,2.641 14.323,1.291 16.946,1.291 C21.354,1.291 24.264,2.182 24.733,3.676 C25.482,6.027 23.816,9.013 23.817,9.013 C23.807,9.027 22.813,10.449 19.272,10.479 C17.515,10.479 16.701,10.041 15.840,9.577 C15.056,9.153 14.245,8.716 12.852,8.716 C11.184,8.716 10.231,10.361 9.692,12.028 C9.605,11.465 9.545,11.007 9.545,10.782 C9.545,10.609 9.530,10.351 9.513,10.030 C9.438,8.661 9.298,6.112 10.018,4.447 ZM11.456,20.762 C11.396,20.569 11.231,20.410 11.044,20.341 C11.009,20.328 10.196,20.013 9.807,18.425 C9.411,16.803 9.649,16.169 9.676,16.110 C9.688,16.110 9.702,16.110 9.715,16.109 C9.770,16.106 9.818,16.087 9.869,16.071 C9.890,16.064 9.914,16.064 9.933,16.055 C10.007,16.023 10.073,15.978 10.129,15.922 C10.142,15.910 10.148,15.894 10.160,15.880 C10.200,15.833 10.237,15.784 10.262,15.727 C10.275,15.698 10.277,15.665 10.287,15.634 C10.298,15.594 10.316,15.557 10.318,15.515 C10.465,13.719 11.275,10.012 12.852,10.012 C13.920,10.012 14.498,10.324 15.229,10.719 C16.148,11.215 17.189,11.776 19.272,11.776 L19.379,11.776 C22.571,11.748 24.065,10.630 24.633,10.039 C24.908,10.093 25.151,10.228 25.373,10.453 C26.435,11.532 26.670,14.226 26.676,15.325 C26.666,15.367 26.648,15.406 26.648,15.451 C26.648,15.735 26.815,15.962 27.060,16.047 C27.076,16.054 27.089,16.066 27.105,16.072 C27.159,16.091 27.215,16.097 27.272,16.101 C27.364,16.213 27.576,16.852 27.192,18.426 C26.803,20.013 25.992,20.328 25.973,20.335 C25.769,20.398 25.608,20.557 25.545,20.762 C24.833,23.030 21.683,25.678 21.628,25.725 C21.615,25.737 20.357,26.866 18.500,26.866 C16.642,26.866 15.382,25.737 15.346,25.704 C15.338,25.698 15.133,25.525 14.822,25.236 C14.821,25.236 14.819,25.235 14.819,25.235 C13.886,24.369 11.987,22.459 11.456,20.762 ZM14.396,29.272 L18.026,31.528 C18.022,31.534 18.015,31.536 18.009,31.541 L15.946,33.953 C15.802,34.120 15.753,34.350 15.816,34.562 C15.918,34.901 16.212,35.402 16.726,35.789 L16.091,37.865 L15.148,34.976 L13.504,29.937 L14.396,29.272 ZM2.007,40.150 C3.041,36.642 7.892,33.960 9.910,32.976 L9.910,35.862 C9.910,36.220 10.200,36.510 10.557,36.510 L11.013,36.510 L10.508,36.917 C10.266,37.111 10.196,37.450 10.340,37.725 L12.420,41.702 L1.519,41.702 L2.007,40.150 ZM13.878,41.702 L11.731,37.595 L13.257,36.368 C13.472,36.196 13.554,35.907 13.463,35.647 C13.371,35.388 13.129,35.214 12.854,35.214 L11.202,35.214 L11.202,31.796 L12.494,31.005 L14.249,36.390 C14.251,36.392 14.252,36.394 14.252,36.395 L15.984,41.702 L13.878,41.702 ZM24.506,31.006 L25.796,31.796 L25.796,35.214 L24.146,35.214 C23.872,35.214 23.628,35.388 23.536,35.647 C23.446,35.907 23.528,36.196 23.742,36.368 L25.269,37.595 L23.123,41.702 L21.016,41.702 L24.506,31.006 ZM24.580,41.702 L26.660,37.725 C26.803,37.450 26.733,37.111 26.492,36.917 L25.987,36.510 L26.442,36.510 C26.798,36.510 27.089,36.220 27.089,35.862 L27.089,32.976 C29.106,33.961 33.959,36.645 34.997,40.162 L35.481,41.702 L24.580,41.702 Z" class="cls-1"/>
</symbol>

	<symbol id="icon-aviao" viewBox="0 0 74.82 30.531">
  <defs>
    <style>
      .cls-1 {
        fill: #fff;
        fill-rule: evenodd;
      }
    </style>
  </defs>
  <path d="M73.467,16.052 L47.992,16.052 C47.972,15.994 47.948,15.938 47.928,15.879 C47.916,15.842 47.905,15.807 47.889,15.770 C47.516,14.707 46.986,13.719 46.325,12.832 C46.295,12.789 46.270,12.746 46.235,12.707 C46.230,12.706 46.230,12.702 46.228,12.700 L50.205,12.700 C50.960,12.700 51.574,12.087 51.574,11.331 C51.574,10.573 50.960,9.960 50.205,9.960 L43.182,9.960 C41.872,9.160 40.388,8.624 38.798,8.426 L38.798,1.362 C38.798,0.605 38.185,-0.008 37.430,-0.008 C36.673,-0.008 36.060,0.605 36.060,1.362 L36.060,8.426 C34.469,8.624 32.988,9.160 31.680,9.960 L24.657,9.960 C23.901,9.960 23.288,10.573 23.288,11.331 C23.288,12.087 23.901,12.700 24.657,12.700 L28.633,12.700 C28.632,12.702 28.629,12.704 28.628,12.707 C28.592,12.746 28.567,12.788 28.536,12.830 C27.878,13.716 27.351,14.700 26.977,15.758 C26.956,15.804 26.943,15.847 26.928,15.893 C26.910,15.948 26.887,15.999 26.869,16.052 L1.362,16.052 C0.674,16.052 0.093,16.565 0.005,17.249 C-0.082,17.933 0.351,18.575 1.017,18.749 L11.732,21.543 C11.123,22.318 10.743,23.281 10.743,24.342 C10.743,26.849 12.780,28.889 15.285,28.889 C17.789,28.889 19.826,26.849 19.826,24.342 C19.826,24.100 19.792,23.867 19.756,23.636 L28.424,25.896 C30.437,28.705 33.718,30.545 37.430,30.545 C41.145,30.545 44.431,28.702 46.444,25.886 L55.071,23.636 C55.035,23.868 55.000,24.100 55.000,24.342 C55.000,26.849 57.039,28.889 59.545,28.889 C62.050,28.889 64.087,26.849 64.087,24.342 C64.087,23.281 63.706,22.318 63.097,21.543 L73.811,18.749 C74.478,18.575 74.912,17.933 74.825,17.249 C74.737,16.565 74.155,16.052 73.467,16.052 ZM15.285,26.149 C14.290,26.149 13.480,25.338 13.480,24.342 C13.480,23.345 14.290,22.535 15.285,22.535 C16.279,22.535 17.090,23.345 17.090,24.342 C17.090,25.338 16.279,26.149 15.285,26.149 ZM59.545,26.149 C58.548,26.149 57.738,25.338 57.738,24.342 C57.738,23.345 58.548,22.535 59.545,22.535 C60.540,22.535 61.349,23.345 61.349,24.342 C61.349,25.338 60.540,26.149 59.545,26.149 ZM29.716,16.233 C29.738,16.177 29.765,16.124 29.790,16.069 C31.480,17.500 33.799,17.481 36.060,17.441 L36.060,20.646 C33.136,20.306 31.015,18.815 29.716,16.233 ZM37.430,11.073 C39.834,11.073 41.998,12.101 43.524,13.734 C42.636,14.705 41.208,14.743 38.751,14.699 C38.325,14.691 37.887,14.686 37.448,14.686 C37.442,14.686 37.436,14.683 37.430,14.683 C37.423,14.683 37.417,14.686 37.410,14.686 C36.972,14.686 36.534,14.691 36.111,14.699 C33.644,14.743 32.223,14.704 31.337,13.733 C32.864,12.100 35.027,11.073 37.430,11.073 ZM38.798,17.441 C39.158,17.448 39.519,17.454 39.876,17.454 C41.787,17.453 43.648,17.266 45.069,16.062 C45.094,16.119 45.121,16.174 45.145,16.231 C43.845,18.814 41.725,20.306 38.798,20.646 L38.798,17.441 ZM12.048,18.794 L26.370,18.794 C26.359,19.008 26.339,19.221 26.339,19.438 C26.339,20.553 26.507,21.629 26.814,22.644 L12.048,18.794 ZM37.430,27.804 C33.048,27.804 29.449,24.407 29.108,20.104 C31.154,22.280 33.994,23.466 37.430,23.466 C40.864,23.466 43.708,22.279 45.753,20.103 C45.411,24.406 41.812,27.804 37.430,27.804 ZM48.490,18.794 L62.781,18.794 L48.050,22.636 C48.354,21.622 48.523,20.549 48.523,19.438 C48.523,19.221 48.502,19.008 48.490,18.794 Z" class="cls-1"/>
</symbol>

	<symbol id="icon-comparativo" viewBox="0 0 43 43">
  <defs>
    <style>
      .cls-1 {
        fill: #8ae647;
        fill-rule: evenodd;
      }
    </style>
  </defs>
  <path d="M42.336,19.632 L33.609,19.632 C33.608,19.632 33.608,19.632 33.607,19.632 C33.605,19.632 33.605,19.632 33.605,19.632 L26.958,19.632 C26.958,19.632 26.958,19.632 26.957,19.632 C26.955,19.632 26.955,19.632 26.954,19.632 L24.006,19.632 C23.645,19.632 23.353,19.340 23.353,18.980 L23.353,0.647 C23.353,0.287 23.645,-0.005 24.006,-0.005 C25.956,-0.005 27.837,0.293 29.610,0.841 C29.622,0.845 29.635,0.846 29.647,0.851 C30.884,1.236 32.062,1.751 33.176,2.369 C33.263,2.398 33.341,2.447 33.408,2.509 C34.362,3.056 35.270,3.672 36.112,4.369 C36.146,4.395 36.177,4.424 36.207,4.456 C36.969,5.097 37.673,5.803 38.325,6.555 C38.386,6.599 38.435,6.657 38.478,6.722 C39.083,7.436 39.627,8.199 40.123,8.997 C40.182,9.050 40.234,9.114 40.271,9.190 C40.285,9.219 40.285,9.249 40.294,9.279 C40.772,10.078 41.202,10.906 41.560,11.774 C41.567,11.786 41.579,11.794 41.585,11.806 C41.605,11.846 41.607,11.889 41.618,11.930 C41.968,12.800 42.249,13.702 42.467,14.629 C42.467,14.631 42.469,14.632 42.470,14.634 C42.510,14.717 42.531,14.805 42.535,14.892 C42.824,16.210 42.990,17.575 42.990,18.980 C42.990,19.340 42.697,19.632 42.336,19.632 ZM24.658,1.311 L24.658,3.072 L27.523,1.668 C26.590,1.479 25.638,1.347 24.658,1.311 ZM29.464,2.169 L24.658,4.525 L24.658,6.334 L31.497,2.981 C30.839,2.672 30.163,2.397 29.464,2.169 ZM32.925,3.733 L24.658,7.787 L24.658,9.596 L34.491,4.775 C33.988,4.402 33.467,4.052 32.925,3.733 ZM35.616,5.676 L24.658,11.048 L24.658,12.857 L36.859,6.875 C36.463,6.456 36.050,6.055 35.616,5.676 ZM37.752,7.890 L24.658,14.310 L24.658,16.119 L38.727,9.220 C38.422,8.761 38.097,8.317 37.752,7.890 ZM39.420,10.333 L24.658,17.572 L24.658,18.327 L26.805,18.327 L40.150,11.783 C39.929,11.287 39.686,10.803 39.420,10.333 ZM40.630,13.001 L29.768,18.327 L33.456,18.327 L41.113,14.572 C40.975,14.038 40.814,13.514 40.630,13.001 ZM41.393,15.888 L36.418,18.327 L41.672,18.327 C41.642,17.496 41.535,16.686 41.393,15.888 ZM37.965,24.004 C37.965,34.472 29.449,42.988 18.981,42.988 C8.513,42.988 -0.003,34.472 -0.003,24.004 C-0.003,13.536 8.513,5.020 18.981,5.020 C19.341,5.020 19.634,5.312 19.634,5.672 L19.634,23.351 L37.313,23.351 C37.673,23.351 37.965,23.643 37.965,24.004 ZM18.981,24.656 C18.621,24.656 18.328,24.364 18.328,24.004 L18.328,6.336 C8.881,6.680 1.301,14.473 1.301,24.004 C1.301,33.752 9.232,41.684 18.981,41.684 C28.511,41.684 36.303,34.104 36.647,24.656 L18.981,24.656 Z" class="cls-1"/>
</symbol>

	<symbol id="icon-edital" viewBox="0 0 29.97 36.968">
  <defs>
    <style>
      .cls-1 {
        fill: #8ae647;
        fill-rule: evenodd;
      }
    </style>
  </defs>
  <path d="M1.559,-0.008 L28.396,-0.008 L29.966,-0.008 L29.966,1.537 L29.966,35.432 L29.966,36.977 L28.396,36.977 L9.458,36.977 L8.946,36.977 L8.525,36.671 L0.630,30.883 L-0.007,30.419 L-0.007,29.648 L-0.007,1.537 L-0.007,-0.008 L1.559,-0.008 L1.559,-0.008 ZM3.133,28.073 L7.914,26.339 L8.589,26.092 L8.792,26.778 L10.852,33.886 L26.823,33.886 L26.823,3.086 L3.133,3.086 L3.133,28.073 L3.133,28.073 ZM9.316,33.406 L7.697,27.829 L3.688,29.282 L9.316,33.406 L9.316,33.406 ZM7.082,19.895 L7.082,21.179 L23.113,21.179 L23.113,19.895 L7.082,19.895 L7.082,19.895 ZM7.082,16.037 L7.082,17.324 L23.113,17.324 L23.113,16.037 L7.082,16.037 L7.082,16.037 ZM7.082,11.828 L7.082,13.116 L23.113,13.116 L23.113,11.828 L7.082,11.828 L7.082,11.828 ZM7.082,7.973 L7.082,9.257 L23.113,9.257 L23.113,7.973 L7.082,7.973 Z" class="cls-1"/>
</symbol>

	<symbol id="icon-estudos" viewBox="0 0 42 40">
  <defs>
    <style>
      .cls-1 {
        fill: #fff;
        fill-rule: evenodd;
      }
    </style>
  </defs>
  <path d="M41.361,1.326 L39.637,1.326 L39.637,23.515 L41.361,23.515 C41.718,23.515 42.008,23.809 42.008,24.172 C42.008,24.535 41.718,24.829 41.361,24.829 L38.991,24.829 L21.649,24.829 L21.649,30.592 L29.703,38.779 C29.955,39.035 29.955,39.451 29.703,39.707 C29.576,39.836 29.411,39.900 29.245,39.900 C29.080,39.900 28.915,39.836 28.789,39.707 L21.649,32.449 L21.649,39.335 C21.649,39.697 21.359,39.992 21.002,39.992 C20.646,39.992 20.357,39.697 20.357,39.335 L20.357,32.449 L13.216,39.707 C13.089,39.836 12.925,39.900 12.759,39.900 C12.593,39.900 12.428,39.836 12.301,39.707 C12.050,39.451 12.050,39.035 12.301,38.779 L20.357,30.592 L20.357,24.829 L3.013,24.829 L0.642,24.829 C0.285,24.829 -0.004,24.535 -0.004,24.172 C-0.004,23.809 0.285,23.515 0.642,23.515 L2.367,23.515 L2.367,1.326 L0.642,1.326 C0.285,1.326 -0.004,1.032 -0.004,0.670 C-0.004,0.307 0.285,0.013 0.642,0.013 L3.013,0.013 L38.991,0.013 L41.361,0.013 C41.718,0.013 42.008,0.307 42.008,0.670 C42.008,1.032 41.718,1.326 41.361,1.326 ZM38.344,1.326 L3.660,1.326 L3.660,23.515 L38.344,23.515 L38.344,1.326 ZM6.887,3.048 L13.410,3.048 C13.766,3.048 14.056,3.342 14.056,3.705 C14.056,4.068 13.766,4.362 13.410,4.362 L6.887,4.362 C6.530,4.362 6.240,4.068 6.240,3.705 C6.240,3.342 6.530,3.048 6.887,3.048 ZM6.887,6.080 L13.410,6.080 C13.766,6.080 14.056,6.374 14.056,6.737 L14.056,21.194 C14.056,21.557 13.766,21.851 13.410,21.851 L6.887,21.851 C6.530,21.851 6.240,21.557 6.240,21.194 L6.240,6.737 C6.240,6.374 6.530,6.080 6.887,6.080 ZM12.764,20.537 L12.764,18.309 L8.338,20.537 L12.764,20.537 ZM7.532,19.476 L12.764,16.843 L12.764,15.024 L7.532,17.658 L7.532,19.476 ZM7.532,16.192 L12.764,13.558 L12.764,11.740 L7.532,14.373 L7.532,16.192 ZM7.532,12.907 L12.764,10.274 L12.764,8.455 L7.532,11.089 L7.532,12.907 ZM7.532,9.623 L11.959,7.394 L7.532,7.394 L7.532,9.623 ZM17.741,3.048 L24.262,3.048 C24.619,3.048 24.909,3.342 24.909,3.705 C24.909,4.068 24.619,4.362 24.262,4.362 L17.741,4.362 C17.385,4.362 17.095,4.068 17.095,3.705 C17.095,3.342 17.385,3.048 17.741,3.048 ZM17.741,6.080 L24.262,6.080 C24.619,6.080 24.909,6.374 24.909,6.737 L24.909,21.194 C24.909,21.557 24.619,21.851 24.262,21.851 L17.741,21.851 C17.385,21.851 17.095,21.557 17.095,21.194 L17.095,6.737 C17.095,6.374 17.385,6.080 17.741,6.080 ZM23.617,20.537 L23.617,18.309 L19.192,20.537 L23.617,20.537 ZM18.387,19.476 L23.617,16.843 L23.617,15.024 L18.387,17.658 L18.387,19.476 ZM18.387,16.192 L23.617,13.558 L23.617,11.740 L18.387,14.373 L18.387,16.192 ZM18.387,12.907 L23.617,10.274 L23.617,7.394 L18.387,7.394 L18.387,12.907 ZM28.593,6.080 L35.116,6.080 C35.473,6.080 35.762,6.374 35.762,6.737 L35.762,21.194 C35.762,21.557 35.473,21.851 35.116,21.851 L28.593,21.851 C28.237,21.851 27.947,21.557 27.947,21.194 L27.947,6.737 C27.947,6.374 28.237,6.080 28.593,6.080 ZM34.470,20.537 L34.470,18.309 L30.044,20.537 L34.470,20.537 ZM29.239,19.476 L34.470,16.843 L34.470,15.024 L29.239,17.658 L29.239,19.476 ZM29.239,16.192 L34.470,13.558 L34.470,7.394 L29.239,7.394 L29.239,16.192 ZM35.117,4.362 L28.595,4.362 C28.239,4.362 27.949,4.068 27.949,3.705 C27.949,3.342 28.239,3.048 28.595,3.048 L35.117,3.048 C35.474,3.048 35.764,3.342 35.764,3.705 C35.764,4.068 35.474,4.362 35.117,4.362 Z" class="cls-1"/>
</symbol>

	<symbol id="icon-investimentos" viewBox="0 0 49 42">
  <defs>
    <style>
      .cls-1 {
        fill: #8ae647;
        fill-rule: evenodd;
      }
    </style>
  </defs>
  <path d="M38.393,42.000 C32.548,42.000 27.794,37.271 27.794,31.460 C27.794,25.649 32.548,20.920 38.393,20.920 C44.238,20.920 48.991,25.649 48.991,31.460 C48.991,37.271 44.238,42.000 38.393,42.000 ZM38.393,22.220 C33.269,22.220 29.099,26.365 29.099,31.460 C29.099,36.555 33.269,40.700 38.393,40.700 C43.517,40.700 47.685,36.555 47.685,31.460 C47.685,26.365 43.517,22.220 38.393,22.220 ZM38.391,30.810 C39.915,30.810 41.156,32.044 41.156,33.559 C41.156,34.851 40.253,35.929 39.044,36.223 L39.044,36.942 C39.044,37.302 38.752,37.593 38.391,37.593 C38.030,37.593 37.737,37.302 37.737,36.942 L37.737,36.223 C36.530,35.929 35.628,34.851 35.628,33.559 C35.628,33.200 35.919,32.909 36.280,32.909 C36.641,32.909 36.934,33.200 36.934,33.559 C36.934,34.359 37.587,35.009 38.391,35.009 C39.195,35.009 39.849,34.359 39.849,33.559 C39.849,32.760 39.195,32.110 38.391,32.110 C36.867,32.110 35.628,30.876 35.628,29.361 C35.628,28.069 36.530,26.992 37.737,26.698 L37.737,25.978 C37.737,25.618 38.030,25.327 38.391,25.327 C38.752,25.327 39.044,25.618 39.044,25.978 L39.044,26.698 C40.253,26.992 41.156,28.069 41.156,29.361 C41.156,29.720 40.864,30.010 40.503,30.010 C40.142,30.010 39.849,29.720 39.849,29.361 C39.849,28.562 39.195,27.912 38.391,27.912 C37.587,27.912 36.934,28.562 36.934,29.361 C36.934,30.160 37.587,30.810 38.391,30.810 ZM26.501,10.244 L24.140,10.244 L24.140,14.130 C24.140,14.489 23.847,14.780 23.486,14.780 L21.125,14.780 L21.125,18.146 L23.486,18.146 C23.847,18.146 24.140,18.437 24.140,18.796 L24.140,22.682 L24.491,22.682 C24.851,22.682 25.144,22.973 25.144,23.332 L25.144,27.740 C25.144,28.099 24.851,28.390 24.491,28.390 L24.140,28.390 L24.140,32.277 C24.140,32.636 23.847,32.927 23.486,32.927 L23.134,32.927 L23.134,36.292 L23.486,36.292 C23.847,36.292 24.140,36.583 24.140,36.942 L24.140,41.350 C24.140,41.709 23.847,42.000 23.486,42.000 L3.670,42.000 C3.308,42.000 3.016,41.709 3.016,41.350 L3.016,37.464 L2.664,37.464 C2.304,37.464 2.011,37.173 2.011,36.814 L2.011,32.406 C2.011,32.047 2.304,31.756 2.664,31.756 L3.016,31.756 L3.016,27.869 C3.016,27.510 3.308,27.219 3.670,27.219 L4.020,27.219 L4.020,23.854 L3.670,23.854 C3.308,23.854 3.016,23.563 3.016,23.204 L3.016,19.317 L0.655,19.317 C0.294,19.317 0.001,19.026 0.001,18.667 L0.001,14.259 C0.001,13.900 0.294,13.609 0.655,13.609 L3.016,13.609 L3.016,9.723 C3.016,9.363 3.308,9.072 3.670,9.072 L6.031,9.072 L6.031,5.707 L3.670,5.707 C3.308,5.707 3.016,5.416 3.016,5.057 L3.016,0.649 C3.016,0.290 3.308,-0.001 3.670,-0.001 L23.486,-0.001 C23.847,-0.001 24.140,0.290 24.140,0.649 L24.140,4.536 L26.501,4.536 C26.861,4.536 27.154,4.827 27.154,5.186 L27.154,9.594 C27.154,9.953 26.861,10.244 26.501,10.244 ZM22.834,19.446 L4.322,19.446 L4.322,22.554 L22.834,22.554 L22.834,19.446 ZM23.838,27.090 L23.838,23.982 L5.328,23.982 L5.328,27.090 L23.838,27.090 ZM4.322,28.519 L4.322,31.627 L22.834,31.627 L22.834,28.519 L4.322,28.519 ZM4.322,40.700 L22.834,40.700 L22.834,37.593 L4.322,37.593 L4.322,40.700 ZM3.318,33.056 L3.318,36.163 L21.828,36.163 L21.828,33.056 L3.318,33.056 ZM1.307,14.909 L1.307,18.017 L19.818,18.017 L19.818,14.909 L1.307,14.909 ZM4.322,10.373 L4.322,13.480 L22.834,13.480 L22.834,10.373 L4.322,10.373 ZM22.834,1.299 L4.322,1.299 L4.322,4.407 L22.834,4.407 L22.834,1.299 ZM25.848,5.836 L7.337,5.836 L7.337,8.944 L25.848,8.944 L25.848,5.836 Z" class="cls-1"/>
</symbol>

	<symbol id="icon-leilao" viewBox="0 0 48 40">
  <defs>
    <style>
      .cls-1 {
        fill: #fff;
        fill-rule: evenodd;
      }
    </style>
  </defs>
  <path d="M47.990,35.836 C47.990,36.946 47.568,37.991 46.802,38.777 C46.037,39.563 45.020,39.996 43.937,39.996 C42.855,39.996 41.838,39.563 41.072,38.778 L24.162,20.015 L23.182,21.022 C23.670,22.032 23.517,23.288 22.700,24.128 L19.875,27.028 C19.377,27.538 18.719,27.818 18.016,27.818 C17.316,27.818 16.655,27.538 16.160,27.028 L9.763,20.462 C9.268,19.953 8.993,19.276 8.993,18.555 C8.993,17.835 9.268,17.158 9.763,16.648 L12.588,13.749 C13.377,12.939 14.624,12.784 15.606,13.261 L21.939,6.759 C21.759,6.390 21.653,5.984 21.653,5.559 C21.653,4.839 21.927,4.161 22.422,3.652 L25.247,0.752 C26.240,-0.266 27.969,-0.266 28.962,0.752 L35.359,7.319 C35.854,7.827 36.128,8.505 36.128,9.225 C36.128,9.946 35.854,10.623 35.359,11.132 L32.534,14.032 C32.037,14.541 31.378,14.821 30.677,14.821 C30.262,14.821 29.868,14.713 29.507,14.528 L28.526,15.535 L46.784,32.877 C47.568,33.681 47.990,34.725 47.990,35.836 ZM15.391,14.684 C15.138,14.424 14.802,14.282 14.446,14.282 C14.088,14.282 13.752,14.424 13.499,14.684 L10.674,17.584 C10.421,17.843 10.283,18.189 10.283,18.555 C10.283,18.923 10.421,19.267 10.674,19.527 L17.071,26.093 C17.576,26.612 18.457,26.612 18.963,26.093 L21.787,23.193 C22.309,22.658 22.309,21.789 21.790,21.252 L18.589,17.967 L15.391,14.684 ZM16.628,14.082 L22.372,19.980 L28.493,13.698 L22.748,7.800 L16.628,14.082 ZM29.731,13.097 C30.236,13.616 31.116,13.616 31.622,13.096 L34.447,10.197 C34.700,9.937 34.838,9.592 34.838,9.225 C34.838,8.858 34.700,8.513 34.447,8.254 L28.050,1.687 C27.797,1.428 27.461,1.285 27.104,1.285 C26.748,1.285 26.412,1.428 26.159,1.688 L23.334,4.588 C23.080,4.847 22.941,5.192 22.941,5.559 C22.941,5.925 23.080,6.270 23.332,6.529 L25.423,8.675 L29.731,13.097 ZM45.890,33.831 L27.616,16.472 L25.074,19.079 L42.001,37.860 C43.008,38.894 44.846,38.913 45.890,37.842 C46.413,37.305 46.700,36.593 46.700,35.836 C46.700,35.078 46.413,34.366 45.890,33.831 ZM30.529,33.135 L35.486,38.897 C35.654,39.092 35.694,39.369 35.591,39.606 C35.486,39.843 35.257,39.996 35.003,39.996 L0.663,39.996 C0.409,39.996 0.180,39.843 0.076,39.606 C-0.029,39.369 0.012,39.092 0.180,38.897 L5.136,33.135 C5.258,32.993 5.434,32.912 5.619,32.912 L30.047,32.912 C30.231,32.912 30.408,32.993 30.529,33.135 ZM5.910,34.234 L2.092,38.673 L33.574,38.673 L29.757,34.234 L5.910,34.234 ZM28.890,37.115 L6.775,37.115 C6.419,37.115 6.130,36.819 6.130,36.454 C6.130,36.089 6.419,35.792 6.775,35.792 L28.890,35.792 C29.245,35.792 29.534,36.089 29.534,36.454 C29.534,36.819 29.245,37.115 28.890,37.115 Z" class="cls-1"/>
</symbol>
	
	<symbol id="icon-multimidia" viewBox="0 0 47 42">
  <defs>
    <style>
      .cls-1 {
        fill: #8ae647;
        fill-rule: evenodd;
      }
    </style>
  </defs>
  <path d="M46.145,39.616 L43.849,39.616 C43.553,39.616 43.278,39.464 43.121,39.214 L39.647,33.674 L36.295,33.674 C36.888,37.722 37.893,40.832 37.908,40.876 C37.993,41.137 37.949,41.423 37.787,41.646 C37.626,41.868 37.367,42.000 37.092,42.000 L4.328,42.000 C4.089,42.000 3.863,41.902 3.700,41.728 C3.549,41.567 0.013,37.684 0.013,28.352 C0.013,19.043 3.526,14.847 3.676,14.674 C3.839,14.484 4.077,14.374 4.328,14.374 L37.092,14.374 C37.366,14.374 37.624,14.505 37.785,14.727 C37.947,14.948 37.993,15.233 37.909,15.494 C37.895,15.539 36.882,18.732 36.290,22.834 L39.583,22.834 L43.122,17.229 C43.279,16.980 43.554,16.829 43.849,16.829 L46.145,16.829 C46.619,16.829 47.003,17.213 47.003,17.686 L47.003,38.759 C47.003,39.232 46.619,39.616 46.145,39.616 ZM4.760,16.089 C4.026,17.155 1.730,21.075 1.730,28.352 C1.730,35.614 4.016,39.299 4.742,40.285 L35.939,40.285 C35.337,38.150 34.149,33.290 34.149,28.244 C34.149,23.182 35.345,18.244 35.943,16.089 L4.760,16.089 ZM45.285,18.543 L44.323,18.543 L40.907,23.954 C40.795,24.297 40.482,24.549 40.101,24.549 L36.074,24.549 C35.947,25.750 35.867,26.996 35.867,28.244 C35.867,29.503 35.949,30.756 36.077,31.959 L39.975,31.959 C39.988,31.957 40.001,31.961 40.015,31.959 L40.129,31.959 C40.137,31.959 40.144,31.964 40.152,31.964 C40.244,31.968 40.330,31.984 40.416,32.017 C40.451,32.029 40.481,32.044 40.515,32.061 C40.568,32.089 40.618,32.122 40.665,32.162 C40.717,32.205 40.760,32.252 40.801,32.305 C40.813,32.322 40.832,32.332 40.843,32.350 L44.325,37.901 L45.285,37.901 L45.285,18.543 ZM27.630,31.123 L10.483,31.123 C10.008,31.123 9.624,30.739 9.624,30.266 L9.624,25.055 C9.624,24.582 10.008,24.198 10.483,24.198 L27.630,24.198 C28.105,24.198 28.489,24.582 28.489,25.055 L28.489,30.266 C28.489,30.739 28.105,31.123 27.630,31.123 ZM21.727,25.913 L11.342,25.913 L11.342,29.408 L21.727,29.408 L21.727,25.913 ZM26.771,25.913 L23.444,25.913 L23.444,29.408 L26.771,29.408 L26.771,25.913 ZM25.361,13.032 C22.935,13.032 20.818,11.701 19.693,9.734 C18.568,11.701 16.449,13.032 14.021,13.032 C10.421,13.032 7.493,10.109 7.493,6.515 C7.493,2.923 10.421,0.000 14.021,0.000 C16.449,0.000 18.568,1.331 19.693,3.298 C20.818,1.331 22.935,0.000 25.361,0.000 C28.962,0.000 31.892,2.923 31.892,6.515 C31.892,10.109 28.962,13.032 25.361,13.032 ZM14.021,1.715 C11.368,1.715 9.210,3.868 9.210,6.515 C9.210,9.163 11.368,11.317 14.021,11.317 C16.675,11.317 18.835,9.163 18.835,6.515 C18.835,3.868 16.675,1.715 14.021,1.715 ZM25.361,1.715 C22.709,1.715 20.552,3.868 20.552,6.515 C20.552,9.163 22.709,11.317 25.361,11.317 C28.015,11.317 30.174,9.163 30.174,6.515 C30.174,3.868 28.015,1.715 25.361,1.715 Z" class="cls-1"/>
</symbol>

	<symbol id="icon-navio" viewBox="0 0 59.44 57.062">
  <defs>
    <style>
      .cls-1 {
        fill: #fff;
        fill-rule: evenodd;
      }
    </style>
  </defs>
  <path d="M57.940,54.077 C54.881,54.077 52.391,51.611 52.391,48.579 C52.391,47.756 51.719,47.090 50.888,47.090 C50.057,47.090 49.385,47.756 49.385,48.579 C49.385,50.989 47.800,53.021 45.617,53.761 L54.886,29.953 C55.038,29.566 55.018,29.135 54.835,28.763 C54.652,28.390 54.320,28.112 53.919,27.992 L48.416,26.348 L48.416,19.985 C48.416,19.931 48.392,19.885 48.385,19.831 C48.377,19.731 48.358,19.636 48.326,19.539 C48.294,19.440 48.253,19.352 48.201,19.262 C48.177,19.217 48.170,19.165 48.138,19.122 C48.111,19.083 48.060,19.042 48.025,19.003 C47.991,18.967 47.960,18.931 47.924,18.897 C46.471,17.409 41.117,15.638 36.013,14.216 C36.015,14.181 36.032,14.149 36.032,14.113 L36.032,1.473 C36.032,0.652 35.361,-0.016 34.530,-0.016 L24.921,-0.016 C24.092,-0.016 23.419,0.652 23.419,1.473 L23.419,14.113 C23.419,14.149 23.437,14.181 23.439,14.216 C18.336,15.638 12.983,17.409 11.529,18.897 C11.494,18.931 11.464,18.967 11.429,19.003 C11.396,19.042 11.344,19.083 11.316,19.122 C11.283,19.165 11.278,19.217 11.252,19.264 C11.201,19.352 11.161,19.439 11.128,19.536 C11.092,19.643 11.075,19.745 11.064,19.856 C11.060,19.900 11.038,19.939 11.038,19.985 L11.038,26.348 L5.536,27.992 C5.134,28.112 4.803,28.391 4.620,28.763 C4.436,29.136 4.417,29.568 4.568,29.955 L13.879,53.773 C11.674,53.045 10.070,51.004 10.070,48.579 C10.070,47.756 9.397,47.090 8.567,47.090 C7.737,47.090 7.063,47.756 7.063,48.579 C7.063,51.611 4.575,54.077 1.512,54.077 C0.680,54.077 0.009,54.743 0.009,55.566 C0.009,56.388 0.680,57.054 1.512,57.054 C4.437,57.054 7.023,55.591 8.567,53.366 C10.110,55.591 12.694,57.054 15.619,57.054 C18.544,57.054 21.130,55.590 22.675,53.366 C24.217,55.590 26.803,57.054 29.729,57.054 C32.653,57.054 35.236,55.591 36.778,53.366 C38.323,55.591 40.907,57.054 43.834,57.054 C46.759,57.054 49.345,55.591 50.888,53.366 C52.432,55.591 55.016,57.054 57.940,57.054 C58.772,57.054 59.443,56.388 59.443,55.566 C59.443,54.743 58.772,54.077 57.940,54.077 ZM33.028,2.962 L33.028,5.786 L26.424,5.786 L26.424,2.962 L33.028,2.962 ZM26.424,8.764 L33.028,8.764 L33.028,13.412 C31.982,13.141 30.985,12.888 30.087,12.669 C29.850,12.611 29.603,12.611 29.365,12.669 C28.467,12.888 27.469,13.141 26.424,13.413 L26.424,8.764 ZM14.043,20.654 C15.856,19.502 23.235,17.256 29.726,15.646 C36.216,17.255 43.596,19.502 45.412,20.654 L45.412,25.450 L30.161,20.894 C30.125,20.884 30.092,20.892 30.057,20.885 C29.979,20.867 29.901,20.868 29.821,20.863 C29.678,20.855 29.545,20.858 29.412,20.886 C29.373,20.896 29.332,20.883 29.293,20.894 L14.043,25.450 L14.043,20.654 ZM38.281,48.579 C38.281,47.756 37.609,47.090 36.778,47.090 C35.947,47.090 35.275,47.756 35.275,48.579 C35.275,51.611 32.787,54.077 29.729,54.077 C26.666,54.077 24.176,51.611 24.176,48.579 C24.176,47.756 23.505,47.090 22.675,47.090 C21.843,47.090 21.171,47.756 21.171,48.579 C21.171,51.089 19.455,53.188 17.129,53.844 L7.957,30.378 L28.224,24.323 L28.224,38.569 C28.224,39.390 28.896,40.057 29.726,40.057 C30.557,40.057 31.229,39.390 31.229,38.569 L31.229,24.323 L51.500,30.378 L42.358,53.855 C40.016,53.211 38.281,51.102 38.281,48.579 Z" class="cls-1"/>
</symbol>

<symbol id="icon-caminhao" viewBox="0 0 43.06 55">
  <defs>
    <style>
      .cls-1 {
        fill: #fff;
        fill-rule: evenodd;
      }
    </style>
  </defs>
  <path d="M43.055,36.813 L43.055,47.071 C43.055,47.719 42.615,48.244 42.023,48.420 L42.023,53.580 C42.023,54.371 41.380,55.011 40.589,55.011 L33.377,55.011 C32.585,55.011 31.943,54.371 31.943,53.580 L31.943,48.501 L11.114,48.501 L11.114,53.580 C11.114,54.371 10.472,55.011 9.681,55.011 L2.468,55.011 C1.676,55.011 1.034,54.371 1.034,53.580 L1.034,48.420 C0.442,48.244 0.003,47.719 0.003,47.071 L0.003,36.813 C0.003,33.684 2.212,31.069 5.155,30.414 L5.155,25.419 L2.274,25.419 C1.482,25.419 0.839,24.779 0.839,23.988 L0.839,14.741 C0.839,13.950 1.482,13.310 2.274,13.310 L5.155,13.310 L5.155,11.701 L5.155,10.544 L5.155,2.966 C5.155,2.903 5.105,2.853 5.040,2.853 C4.247,2.853 3.605,2.213 3.605,1.422 C3.605,0.632 4.247,-0.008 5.040,-0.008 C6.685,-0.008 8.023,1.326 8.023,2.966 L8.023,6.354 C8.537,6.151 9.095,6.031 9.681,6.031 L33.377,6.031 C33.963,6.031 34.520,6.151 35.034,6.354 L35.034,2.966 C35.034,1.326 36.372,-0.008 38.017,-0.008 C38.810,-0.008 39.451,0.632 39.451,1.422 C39.451,2.213 38.810,2.853 38.017,2.853 C37.953,2.853 37.902,2.903 37.902,2.966 L37.902,10.544 L37.902,11.701 L37.902,13.310 L40.782,13.310 C41.574,13.310 42.217,13.950 42.217,14.741 L42.217,23.988 C42.217,24.779 41.574,25.419 40.782,25.419 L37.902,25.419 L37.902,30.414 C40.845,31.069 43.055,33.684 43.055,36.813 ZM5.155,20.948 L5.155,16.171 L3.708,16.171 L3.708,22.558 L5.155,22.558 L5.155,20.948 ZM34.811,52.150 L39.155,52.150 L39.155,48.501 L34.811,48.501 L34.811,52.150 ZM3.903,52.150 L8.246,52.150 L8.246,48.501 L3.903,48.501 L3.903,52.150 ZM33.377,8.892 L9.681,8.892 C8.864,8.892 8.214,9.495 8.078,10.271 L34.979,10.271 C34.843,9.495 34.193,8.892 33.377,8.892 ZM8.023,13.131 L8.023,14.741 L8.023,19.518 L20.095,19.518 L20.095,13.131 L8.023,13.131 ZM35.034,14.741 L35.034,13.131 L22.962,13.131 L22.962,19.518 L35.034,19.518 L35.034,14.741 ZM35.034,23.988 L35.034,22.379 L8.023,22.379 L8.023,23.988 L8.023,30.246 L12.410,30.246 L12.410,26.493 C12.410,25.702 13.053,25.062 13.845,25.062 L29.213,25.062 C30.004,25.062 30.646,25.702 30.646,26.493 L30.646,30.246 L35.034,30.246 L35.034,23.988 ZM27.779,31.670 L27.779,27.923 L15.279,27.923 L15.279,40.160 L27.779,40.160 L27.779,31.684 C27.779,31.681 27.777,31.680 27.777,31.677 C27.777,31.674 27.779,31.673 27.779,31.670 ZM39.348,22.558 L39.348,16.171 L37.902,16.171 L37.902,20.948 L37.902,22.558 L39.348,22.558 ZM36.468,33.107 L30.646,33.107 L30.646,41.591 C30.646,42.381 30.004,43.021 29.213,43.021 L13.845,43.021 C13.053,43.021 12.410,42.381 12.410,41.591 L12.410,33.107 L6.589,33.107 C4.540,33.107 2.870,34.770 2.870,36.813 L2.870,45.640 L9.681,45.640 L33.377,45.640 L40.186,45.640 L40.186,36.813 C40.186,34.770 38.518,33.107 36.468,33.107 ZM35.558,41.920 C34.279,41.920 33.241,40.887 33.241,39.611 C33.241,38.336 34.279,37.302 35.558,37.302 C36.835,37.302 37.872,38.336 37.872,39.611 C37.872,40.887 36.835,41.920 35.558,41.920 ZM7.726,41.920 C6.448,41.920 5.411,40.887 5.411,39.611 C5.411,38.336 6.448,37.302 7.726,37.302 C9.006,37.302 10.042,38.336 10.042,39.611 C10.042,40.887 9.006,41.920 7.726,41.920 Z" class="cls-1"/>
</symbol>

<symbol id="icon-pin"  viewBox="0 0 48.03 54">
  <defs>
    <style>
      .cls-1 {
        fill: #fff;
        fill-rule: evenodd;
      }
    </style>
  </defs>
  <path d="M41.006,40.036 L25.155,53.585 C24.831,53.861 24.428,54.000 24.024,54.000 C23.620,54.000 23.217,53.861 22.893,53.584 L7.232,40.199 C7.168,40.151 7.106,40.099 7.047,40.041 C2.512,35.612 0.012,29.719 0.012,23.448 C0.012,10.513 10.784,-0.010 24.024,-0.010 C37.264,-0.010 48.036,10.513 48.036,23.448 C48.036,29.716 45.539,35.607 41.006,40.036 ZM24.024,3.347 C12.679,3.347 3.449,12.365 3.449,23.448 C3.449,28.781 5.557,33.794 9.387,37.579 C9.389,37.581 9.391,37.582 9.394,37.585 L24.024,50.091 L38.659,37.585 C42.460,33.867 44.599,28.820 44.599,23.448 C44.599,12.365 35.370,3.347 24.024,3.347 ZM24.024,33.412 C18.606,33.412 14.199,29.106 14.199,23.813 C14.199,23.752 14.207,23.692 14.207,23.631 C14.207,23.570 14.199,23.510 14.199,23.448 C14.199,18.156 18.606,13.850 24.024,13.850 C29.442,13.850 33.850,18.156 33.850,23.448 C33.850,23.510 33.842,23.570 33.841,23.631 C33.842,23.692 33.850,23.752 33.850,23.813 C33.850,29.106 29.442,33.412 24.024,33.412 ZM24.024,17.572 C20.565,17.572 17.754,20.275 17.654,23.631 C17.754,26.987 20.565,29.690 24.024,29.690 C27.483,29.690 30.294,26.987 30.395,23.631 C30.294,20.275 27.483,17.572 24.024,17.572 Z" class="cls-1"/>
</symbol>

<symbol id="icon-pinFill" viewBox="0 0 78.2 97.2">
  <path class="st0" d="M39.1,0C17.5,0,0,17.6,0,39.3C0,55.2,9.4,68.8,23,75l16.1,22.2l15.8-22.6c12.3-6.6,23.3-20.3,23.3-35.3
  C78.2,17.6,60.7,0,39.1,0"/>
</symbol>

	<symbol id="icon-tcu" viewBox="0 0 44 42.937">
  <defs>
    <style>
      .cls-1 {
        fill: #8e7cd9;
        fill-rule: evenodd;
      }
    </style>
  </defs>
  <path d="M43.337,36.983 L40.071,36.983 L40.071,32.977 C40.071,32.619 39.778,32.328 39.416,32.328 L38.245,32.328 L36.467,29.478 L36.467,21.684 L38.245,18.835 L40.579,18.835 C40.939,18.835 41.233,18.544 41.233,18.186 L41.233,13.629 C41.238,13.595 41.253,13.565 41.253,13.530 C41.253,13.266 41.094,13.039 40.866,12.937 L22.370,0.090 C22.145,-0.066 21.846,-0.066 21.622,0.090 L3.037,12.998 C3.019,13.011 3.005,13.030 2.988,13.046 C2.967,13.064 2.947,13.082 2.927,13.103 C2.893,13.143 2.864,13.187 2.840,13.234 C2.828,13.256 2.815,13.274 2.805,13.297 C2.778,13.370 2.760,13.447 2.760,13.526 C2.760,13.527 2.759,13.528 2.759,13.530 L2.759,18.186 C2.759,18.544 3.051,18.835 3.412,18.835 L5.746,18.835 L7.523,21.682 L7.523,29.481 L5.746,32.328 L4.574,32.328 C4.213,32.328 3.920,32.619 3.920,32.977 L3.920,36.983 L0.656,36.983 C0.295,36.983 0.001,37.274 0.001,37.632 L0.001,42.288 C0.001,42.647 0.295,42.937 0.656,42.937 L43.337,42.937 C43.698,42.937 43.991,42.647 43.991,42.288 L43.991,37.632 C43.991,37.274 43.698,36.983 43.337,36.983 ZM27.167,32.328 L25.390,29.480 L25.390,21.683 L27.167,18.835 L27.902,18.835 L29.677,21.680 L29.677,29.483 L27.902,32.328 L27.167,32.328 ZM16.089,32.328 L14.314,29.481 L14.314,21.682 L16.089,18.835 L16.825,18.835 L18.599,21.680 L18.599,29.483 L16.825,32.328 L16.089,32.328 ZM4.066,17.537 L4.066,14.179 L39.925,14.179 L39.925,17.537 L4.066,17.537 ZM24.373,20.847 L19.619,20.847 L18.363,18.835 L25.629,18.835 L24.373,20.847 ZM24.083,22.145 L24.083,29.018 L19.906,29.018 L19.906,22.145 L24.083,22.145 ZM19.619,30.316 L24.373,30.316 L25.629,32.328 L18.363,32.328 L19.619,30.316 ZM30.697,30.316 L35.451,30.316 L36.707,32.328 L29.440,32.328 L30.697,30.316 ZM30.984,29.018 L30.984,22.145 L35.160,22.145 L35.160,29.018 L30.984,29.018 ZM35.451,20.847 L30.697,20.847 L29.440,18.835 L36.707,18.835 L35.451,20.847 ZM21.996,1.414 L38.504,12.881 L5.487,12.881 L21.996,1.414 ZM14.551,18.835 L13.295,20.847 L8.541,20.847 L7.285,18.835 L14.551,18.835 ZM13.006,22.145 L13.006,29.018 L8.831,29.018 L8.831,22.145 L13.006,22.145 ZM8.541,30.316 L13.295,30.316 L14.551,32.328 L7.285,32.328 L8.541,30.316 ZM5.228,33.626 L38.763,33.626 L38.763,36.983 L5.228,36.983 L5.228,33.626 ZM42.683,41.639 L1.309,41.639 L1.309,38.281 L4.574,38.281 L39.416,38.281 L42.683,38.281 L42.683,41.639 Z" class="cls-1"/>
</symbol>

<symbol id="icon-trem" viewBox="0 0 46.15 61.156">
  <defs>
    <style>
      .cls-1 {
        fill: #fff;
        fill-rule: evenodd;
      }
    </style>
  </defs>
  <path d="M45.391,60.930 C45.142,61.076 44.871,61.145 44.601,61.145 C44.072,61.145 43.557,60.878 43.266,60.398 L40.313,55.501 L5.848,55.501 L2.895,60.398 C2.605,60.878 2.089,61.145 1.560,61.145 C1.291,61.145 1.018,61.076 0.771,60.930 C0.035,60.500 -0.208,59.562 0.229,58.838 L6.715,48.082 L2.115,43.551 C1.824,43.265 1.661,42.877 1.661,42.471 L1.661,18.242 C1.661,14.660 4.469,11.569 8.073,10.864 L8.073,3.519 C8.073,2.764 8.634,2.122 9.392,2.010 L22.858,0.008 C22.937,-0.004 23.013,0.023 23.093,0.023 C23.170,0.023 23.245,-0.003 23.321,0.008 L36.786,2.010 C37.543,2.122 38.105,2.764 38.105,3.519 L38.105,10.864 C41.709,11.569 44.517,14.660 44.517,18.242 L44.517,42.471 C44.517,42.877 44.353,43.265 44.063,43.551 L39.451,48.092 L45.933,58.838 C46.368,59.562 46.126,60.500 45.391,60.930 ZM38.471,52.447 L36.983,49.979 C36.944,49.980 36.911,50.000 36.873,50.000 L9.306,50.000 C9.263,50.000 9.223,49.979 9.180,49.974 L7.689,52.447 L38.471,52.447 ZM4.761,41.839 L7.756,44.787 L7.756,36.075 L4.761,32.704 L4.761,41.839 ZM21.539,3.293 L11.174,4.833 L11.174,10.463 L21.539,8.925 L21.539,3.293 ZM35.004,4.833 L24.639,3.293 L24.639,8.925 L35.004,10.463 L35.004,4.833 ZM41.416,18.242 C41.416,15.858 39.145,13.765 36.555,13.765 C36.479,13.765 36.401,13.759 36.324,13.748 L23.089,11.784 L9.854,13.748 C9.777,13.759 9.700,13.765 9.624,13.765 C7.033,13.765 4.761,15.858 4.761,18.242 L4.761,28.066 L10.471,34.495 C10.719,34.773 10.856,35.131 10.856,35.501 L10.856,46.945 L35.322,46.945 L35.322,35.501 C35.322,35.131 35.458,34.773 35.705,34.495 L41.416,28.066 L41.416,18.242 ZM41.416,41.839 L41.416,32.704 L38.423,36.075 L38.423,44.787 L41.416,41.839 ZM30.793,44.672 C29.359,44.672 28.196,43.526 28.196,42.113 C28.196,40.700 29.359,39.554 30.793,39.554 C32.228,39.554 33.390,40.700 33.390,42.113 C33.390,43.526 32.228,44.672 30.793,44.672 ZM23.089,28.730 C19.632,28.730 16.820,25.959 16.820,22.552 C16.820,19.147 19.632,16.377 23.089,16.377 C26.546,16.377 29.359,19.147 29.359,22.552 C29.359,25.959 26.546,28.730 23.089,28.730 ZM23.089,19.431 C21.342,19.431 19.919,20.832 19.919,22.552 C19.919,24.274 21.342,25.676 23.089,25.676 C24.837,25.676 26.258,24.274 26.258,22.552 C26.258,20.832 24.837,19.431 23.089,19.431 ZM17.981,42.113 C17.981,43.526 16.820,44.672 15.385,44.672 C13.951,44.672 12.788,43.526 12.788,42.113 C12.788,40.700 13.951,39.554 15.385,39.554 C16.820,39.554 17.981,40.700 17.981,42.113 Z" class="cls-1"/>
</symbol>

<symbol id="icon-close" viewBox="0 0 34.03 34.031">
  <defs>
    <style>
      .cls-1 {
        fill: #4d4c4c;
        fill-rule: evenodd;
      }
    </style>
  </defs>
  <path d="M33.568,0.463 C32.939,-0.165 31.920,-0.165 31.291,0.463 L17.021,14.730 L2.750,0.463 C2.121,-0.165 1.102,-0.165 0.473,0.463 C-0.156,1.092 -0.156,2.111 0.473,2.740 L14.744,17.006 L0.473,31.272 C-0.156,31.901 -0.156,32.920 0.473,33.549 C0.788,33.863 1.200,34.020 1.612,34.020 C2.024,34.020 2.436,33.863 2.750,33.549 L17.021,19.282 L31.291,33.547 C31.606,33.862 32.018,34.019 32.430,34.019 C32.842,34.019 33.254,33.862 33.568,33.547 C34.197,32.918 34.197,31.900 33.568,31.271 L19.298,17.006 L33.568,2.740 C34.197,2.111 34.197,1.092 33.568,0.463 Z" class="cls-1"/>
</symbol>

<symbol id="icon-arrowRight" viewBox="0 0 28.97 51">
  <path d="M2.909,50.987 L0.008,48.150 L23.173,25.488 L0.008,2.827 L2.909,-0.011 L28.975,25.488 L2.909,50.987 Z" class="cls-1"/>
</symbol>

<symbol id="icon-arrowLeft" viewBox="0 0 29 51">
  <path d="M26.088,0.013 L28.992,2.850 L5.802,25.512 L28.992,48.173 L26.088,51.011 L-0.006,25.512 L26.088,0.013 Z" class="cls-1"/>
</symbol>

<symbol id="icon-download" viewBox="0 0 23.75 31.968">
  <path d="M23.381,13.305 L12.486,21.979 C12.466,21.994 12.443,21.999 12.423,22.014 C12.386,22.039 12.354,22.070 12.313,22.089 C12.298,22.097 12.280,22.094 12.265,22.101 C12.140,22.156 12.011,22.192 11.879,22.192 L11.879,22.192 C11.747,22.192 11.620,22.157 11.497,22.104 C11.461,22.088 11.430,22.068 11.395,22.048 C11.354,22.023 11.309,22.009 11.271,21.979 L0.379,13.305 C-0.053,12.962 -0.130,12.326 0.205,11.884 C0.540,11.443 1.164,11.361 1.594,11.707 L10.889,19.108 L10.889,1.000 C10.889,0.440 11.332,-0.013 11.879,-0.013 C12.425,-0.013 12.868,0.440 12.868,1.000 L12.868,19.109 L22.166,11.707 C22.598,11.362 23.219,11.444 23.554,11.884 C23.890,12.326 23.812,12.962 23.381,13.305 ZM1.248,29.934 L22.511,29.934 C23.059,29.934 23.501,30.388 23.501,30.947 C23.501,31.507 23.059,31.960 22.511,31.960 L1.248,31.960 C0.702,31.960 0.259,31.507 0.259,30.947 C0.259,30.388 0.702,29.934 1.248,29.934 Z" class="cls-1"/>
</symbol>

	
</svg>