<svg xmlns="http://www.w3.org/2000/svg" xmlns:xlink="http://www.w3.org/1999/xlink" preserveAspectRatio="xMidYMid" width="34.03" height="34.031" viewBox="0 0 34.03 34.031">
  <defs>
    <style>
      .cls-1 {
        fill: #4d4c4c;
        fill-rule: evenodd;
      }
    </style>
  </defs>
  <path d="M33.568,0.463 C32.939,-0.165 31.920,-0.165 31.291,0.463 L17.021,14.730 L2.750,0.463 C2.121,-0.165 1.102,-0.165 0.473,0.463 C-0.156,1.092 -0.156,2.111 0.473,2.740 L14.744,17.006 L0.473,31.272 C-0.156,31.901 -0.156,32.920 0.473,33.549 C0.788,33.863 1.200,34.020 1.612,34.020 C2.024,34.020 2.436,33.863 2.750,33.549 L17.021,19.282 L31.291,33.547 C31.606,33.862 32.018,34.019 32.430,34.019 C32.842,34.019 33.254,33.862 33.568,33.547 C34.197,32.918 34.197,31.900 33.568,31.271 L19.298,17.006 L33.568,2.740 C34.197,2.111 34.197,1.092 33.568,0.463 Z" class="cls-1"/>
</svg>
